<?xml version="1.0" encoding="UTF-8"?>
<!DOCTYPE svg PUBLIC "-//W3C//DTD SVG 1.0//EN" "http://www.w3.org/TR/2001/REC-SVG-20010904/DTD/svg10.dtd">
<!-- Creator: CorelDRAW 2020 (64 Bit) -->
<svg xmlns="http://www.w3.org/2000/svg" xml:space="preserve" width="2480px" height="3508px" version="1.0" style="shape-rendering:geometricPrecision; text-rendering:geometricPrecision; image-rendering:optimizeQuality; fill-rule:evenodd; clip-rule:evenodd"
viewBox="0 0 2480 3507.43"
 xmlns:xlink="http://www.w3.org/1999/xlink"
 xmlns:xodm="http://www.corel.com/coreldraw/odm/2003">
 <defs>
  <style type="text/css">
   <![CDATA[
    .fil0 {fill:#0D6EFD}
   ]]>
  </style>
 </defs>
 <g id="Camada_x0020_1">
  <metadata id="CorelCorpID_0Corel-Layer"/>
  <g id="_1707032437136">
   <path class="fil0" d="M1337.17 2222.67c14.15,-21.12 50.57,-41.29 53.11,-71.85 14.65,3.91 90.38,69.76 39.03,107.76 -35.4,26.19 -74.57,-9.67 -92.14,-35.91zm-834.16 -806.71l0 -6.2c2.32,-14.12 20.53,-27.73 50.77,-57.96l162.45 -162.46c37.22,-37.21 72.14,-72.14 109.35,-109.35 121.46,-121.45 105.16,-124.47 159.34,-70.29 13.78,13.78 25.27,25.27 39.05,39.05 13.78,13.78 25.27,25.27 39.05,39.05 53.54,53.54 34.35,41.96 11.72,75.77 3.22,12.07 12.81,17.52 21.09,25.77 85.12,84.92 85.85,36.29 153.33,68.48 15.36,7.33 41.23,23.08 50.52,36.96 8.33,-5.58 16.73,-13.62 26.28,-20.58 9.76,-7.11 19.34,-12.19 29.96,-16.91 59.14,-26.33 74.63,1.76 131.98,-49.22 8.52,-7.58 15.19,-15.21 23.45,-23.42 7.92,-7.87 16.43,-12.62 19.52,-24.21 -7.99,-11.93 -21.87,-16.98 -21.87,-34.37 0,-13.47 61.73,-69.53 74.2,-82.01 14.76,-14.76 63.47,-71.07 82.01,-71.07 15.51,0 133.55,125.73 146.06,138.24 9.71,9.71 138.25,132.34 138.25,142.94 0,9.86 2.11,27.61 -19.54,29.89 -8.17,0.86 -17.24,-3.69 -23.42,-8.79 -34.67,-28.55 -221.29,-227.5 -243.7,-242.15l-95.27 93.73 382.69 381.15 92.96 -94.5c-14.45,-21.58 -68.73,-56.6 -68.73,-84.35 0,-14 13.7,-21.87 28.12,-21.87 8.27,0 44.41,39.73 52.33,47.64 27.16,27.16 47.64,36.34 47.64,61.71 0,12.66 -137.3,149.96 -149.96,149.96 -26.6,0 -19.48,-9.81 -37.49,-21.87 -29.5,19.75 -66.64,62.97 -77.56,97.4 -4.57,14.42 -4.24,32.17 -7.6,48.63 -9.26,45.27 -63.45,110.2 -96.04,132.02 28.92,43.19 109.34,83.09 109.34,149.97 0,45.99 -38.89,96.85 -99.97,96.85 0,55.24 -45.7,96.85 -84.35,96.85l-15.63 0 0 15.62c0,40.96 -46.27,84.35 -87.47,84.35 -38.37,0 -34.13,-2.09 -65.61,-18.74 -5.24,62.98 -120.48,109.38 -187.45,9.37 -30.97,20.73 -44.23,59.36 -96.85,59.36 -53.42,0 -98.64,-39.73 -99.98,-99.98 -58.37,0 -96.85,-38.47 -96.85,-96.85 -56.12,-1.25 -99.97,-41.94 -99.97,-99.97 -56.92,0 -99.98,-46.41 -99.98,-87.48 0,-71.52 31.22,-64.2 59.36,-106.22 -13.04,-19.47 -38.47,-37.39 -55.38,-60.21 -53.12,-71.65 -27.05,-99.26 -67.66,-160.41 -14.86,-22.36 -32.7,-42.48 -55.04,-57.44 -37.01,24.79 -24.42,39.63 -77.32,-13.28 -73.49,-73.48 -106.94,-98.78 -110.13,-118.6zm652.96 806.71c0,-28.95 34.22,-54.53 60.14,-80.45 20.31,-20.31 56.03,-63.26 77.32,-63.26 15.78,0 28.93,0.87 40.98,12.13 36.44,34.06 -12.77,76.82 -24.58,88.62 -21.81,21.82 -75.36,86.02 -104.64,88.32 -25.09,1.97 -49.22,-19.34 -49.22,-45.36zm-46.87 -56.23l-15.62 0c-19.21,0 -37.49,-24.13 -37.49,-43.74 0,-21.16 14.49,-31.72 25.78,-42.96l71.85 -71.86c24.3,-24.31 23.7,-28.9 55.46,-28.9 26.72,0 37.49,26.23 37.49,53.12 0,17.73 -43.3,54.23 -61.7,72.63 -12.22,12.22 -22.16,22.14 -34.37,34.37 -10.16,10.18 -23.19,27.34 -41.4,27.34zm-103.09 -99.98c-35.27,0 -46.87,-14.77 -46.87,-49.98 0,-24.01 76.38,-90.41 96.07,-110.13 17.03,-17.06 22.37,-27.34 47.65,-27.34 27.26,0 46.77,21.27 45.85,46.51 -0.95,26.12 -21.99,40.53 -37.26,55.81 -16.39,16.38 -30.48,30.48 -46.87,46.86 -14.99,15 -30.77,38.27 -58.57,38.27zm-99.98 -96.85c-28.15,0 -46.86,-17.47 -46.86,-46.86 0,-26.55 34.28,-51.47 61.7,-78.89 12.74,-12.74 23.2,-23.18 35.93,-35.93 13.99,-14 23.44,-28.89 46.08,-28.89 28.85,0 44.85,22.29 45.84,47.24 1,25.48 -24.36,42.19 -38.81,56.63 -27.02,27.02 -76.86,86.7 -103.88,86.7zm162.46 -403.02c0,38.91 2.09,59.9 30.4,88.32 40.86,41.01 99.99,43.96 145.25,15.47 8,-5.03 14.77,-10.64 21.27,-16.23 22.45,-19.32 8.03,-41.78 -8.03,-45.25 -21.64,-4.69 -38.65,32.67 -79.54,32.67 -34.92,0 -102.09,-52.98 -32.03,-122.63l131.22 -131.21c84.76,-84.76 61.43,-75.38 162.03,-100.41 33.01,-8.21 38.95,-13.81 63.69,-26.9 10.93,16.3 216.6,217.52 252.32,253.8 4.06,4.12 4.98,5.27 8.95,9.8 0.42,0.49 1.02,1.19 1.44,1.68 0.43,0.48 1.04,1.18 1.47,1.66l48.25 48.6c-45.67,68.2 -20.57,77.58 -39.62,122.85 -11.57,27.5 -49.86,72.11 -75.98,89.6l-285.08 -283.53c45.94,-31.75 52.35,-72.63 10.15,-72.63 -9.81,0 -83.73,79.05 -96.07,91.38 -7.96,7.96 -28.9,24.36 -28.9,36.71 0,12.87 12.13,24.99 25,24.99 18.25,0 42,-34.21 56.23,-43.73l369.44 367.87c15.57,15.57 66.85,56.04 31.45,95.49 -4.18,4.65 -6.52,6.76 -12.5,9.37 -28.47,12.46 -44.94,0.59 -62.7,-17.37l-67.16 -67.18c-17.22,-17.22 -21.12,-28.9 -46.08,-28.9 -8.83,0 -18.75,13.03 -18.75,21.87 0,16.79 17.68,28.62 27.34,38.27l67.17 67.17c12.57,12.48 24.21,20.43 24.21,44.52 0,26.01 -18.65,46.86 -43.74,46.86 -42.95,0 -124.14,-118.72 -143.71,-118.72 -10.28,0 -27.22,-2.17 -30.19,19.83 -1.31,9.76 5.05,18.59 10.6,24.75l76.61 76.49c19.09,19.09 30.46,20.73 30.46,53.89 0,26.43 -20.26,44.73 -46.27,42.98 -27.79,-1.87 -80.21,-64.8 -101.35,-85.94 -16.82,-16.81 -25.41,-30.89 -45.48,-34.29 -0.5,-0.08 -1.47,-0.16 -1.92,-0.23 -0.42,-0.06 -1.41,-0.16 -1.77,-0.21 -0.33,-0.04 -1.37,-0.18 -1.62,-0.21 -4.13,-0.53 -4.44,-12.17 -13.92,-25.31 -20.8,-28.83 -46.99,-43.63 -84.47,-43.63 0,-59.54 -40.43,-99.97 -99.98,-99.97 0,-20.65 -0.52,-30.23 -9.2,-47.03 -17.32,-33.53 -47.9,-52.95 -90.77,-52.95 11.04,-26.73 -23.24,-86.36 -75.89,-96.09 -77.52,-14.33 -87.52,47.39 -117.81,55.48 -13.1,-8.77 -27.9,-26.15 -39.9,-38.21 -12.65,-12.7 -24.4,-32.35 -31.98,-49.25 -20.27,-45.15 2.86,-39.75 -40.59,-121.86l313.19 -314.78c12.25,6.12 20.31,14 34.81,19.88 36.52,14.81 99.49,4.07 126.87,44.96 -21.93,32.75 -165.17,155.67 -184.84,193.19 -6.84,13.05 -11.98,25.32 -11.98,44.25zm499.13 -369.4l312.39 310.81 -29.72 31.21 -312.4 -310.81 29.73 -31.21zm-705.33 166.32c19.77,0 30.43,-19.49 49.21,-38.27 25.26,-25.26 110.33,-113.86 125.75,-124.18 13.02,3.47 24.49,18.04 31.24,28.11l-311.64 313.2 -32.77 -31.27c8.13,-5.59 94.47,-87.31 94.47,-100.72 0,-17.15 -13.68,-25 -24.99,-25 -25.17,0 -104.76,103.07 -137.47,124.97l-94.47 -96.11 378 -379.55 98.4 96.86c-13.59,9.33 -147.93,146.38 -171.82,170.26 -8.38,8.37 -21.91,19.68 -26.17,30.38 -5.96,14.99 3.6,31.32 22.26,31.32z"/>
   <path class="fil0" d="M862.29 1232.3c22.66,0 41.2,-27.3 57.02,-42.96 8.34,-8.24 19.16,-13.87 19.44,-29.37 0.19,-10.68 -10.55,-24.52 -23.35,-24.52 -18.71,0 -71.44,57.62 -73.74,70.02 -2.2,11.79 10.05,26.83 20.63,26.83z"/>
   <path class="fil0" d="M1740.19 1232.3c16.8,0 23.75,-15.24 23.23,-24.48 -1.08,-19.06 -59.51,-72.37 -70.09,-72.37 -13.5,0 -25.34,9.64 -26.41,22.31 -1.74,20.51 58.65,74.54 73.27,74.54z"/>
  </g>
 </g>
</svg>
